<svg viewBox="0 0 640 360" xmlns="http://www.w3.org/2000/svg" role="img" aria-label="Relative risk versus p-value: one point per simulated trial">
  <rect width="640" height="360" fill="#ffffff" rx="12"/>
  <circle cx="206.1" cy="235.3" r="2.3" fill="#2563eb" opacity="0.35"/><circle cx="189.3" cy="236.9" r="2.3" fill="#2563eb" opacity="0.35"/><circle cx="113.7" cy="114.5" r="2.3" fill="#2563eb" opacity="0.35"/><circle cx="147.6" cy="181.3" r="2.3" fill="#2563eb" opacity="0.35"/><circle cx="284.8" cy="312.4" r="2.3" fill="#2563eb" opacity="0.35"/><circle cx="170.2" cy="221.0" r="2.3" fill="#2563eb" opacity="0.35"/><circle cx="161.0" cy="203.5" r="2.3" fill="#2563eb" opacity="0.35"/><circle cx="141.1" cy="134.2" r="2.3" fill="#2563eb" opacity="0.35"/><circle cx="120.7" cy="152.2" r="2.3" fill="#2563eb" opacity="0.35"/><circle cx="170.2" cy="221.0" r="2.3" fill="#2563eb" opacity="0.35"/><circle cx="227.8" cy="284.6" r="2.3" fill="#2563eb" opacity="0.35"/><circle cx="196.6" cy="255.4" r="2.3" fill="#2563eb" opacity="0.35"/><circle cx="220.6" cy="278.2" r="2.3" fill="#2563eb" opacity="0.35"/><circle cx="175.2" cy="223.8" r="2.3" fill="#2563eb" opacity="0.35"/><circle cx="107.8" cy="108.1" r="2.3" fill="#2563eb" opacity="0.35"/><circle cx="213.8" cy="262.6" r="2.3" fill="#2563eb" opacity="0.35"/><circle cx="138.4" cy="167.3" r="2.3" fill="#2563eb" opacity="0.35"/><circle cx="155.9" cy="200.0" r="2.3" fill="#2563eb" opacity="0.35"/><circle cx="227.8" cy="284.6" r="2.3" fill="#2563eb" opacity="0.35"/><circle cx="207.4" cy="264.6" r="2.3" fill="#2563eb" opacity="0.35"/><circle cx="129.7" cy="188.3" r="2.3" fill="#2563eb" opacity="0.35"/><circle cx="161.0" cy="203.5" r="2.3" fill="#2563eb" opacity="0.35"/><circle cx="202.8" cy="262.8" r="2.3" fill="#2563eb" opacity="0.35"/><circle cx="156.8" cy="194.4" r="2.3" fill="#2563eb" opacity="0.35"/><circle cx="175.2" cy="212.4" r="2.3" fill="#2563eb" opacity="0.35"/><circle cx="175.2" cy="206.6" r="2.3" fill="#2563eb" opacity="0.35"/><circle cx="213.8" cy="262.6" r="2.3" fill="#2563eb" opacity="0.35"/><circle cx="193.6" cy="239.0" r="2.3" fill="#2563eb" opacity="0.35"/><circle cx="163.3" cy="180.2" r="2.3" fill="#2563eb" opacity="0.35"/><circle cx="133.2" cy="141.5" r="2.3" fill="#2563eb" opacity="0.35"/><circle cx="154.8" cy="205.6" r="2.3" fill="#2563eb" opacity="0.35"/><circle cx="271.7" cy="312.7" r="2.3" fill="#2563eb" opacity="0.35"/><circle cx="166.4" cy="200.9" r="2.3" fill="#2563eb" opacity="0.35"/><circle cx="107.6" cy="124.1" r="2.3" fill="#2563eb" opacity="0.35"/><circle cx="170.0" cy="226.5" r="2.3" fill="#2563eb" opacity="0.35"/><circle cx="154.6" cy="173.5" r="2.3" fill="#2563eb" opacity="0.35"/><circle cx="123.9" cy="109.6" r="2.3" fill="#2563eb" opacity="0.35"/><circle cx="162.3" cy="192.0" r="2.3" fill="#2563eb" opacity="0.35"/><circle cx="118.9" cy="104.1" r="2.3" fill="#2563eb" opacity="0.35"/><circle cx="206.3" cy="273.3" r="2.3" fill="#2563eb" opacity="0.35"/><circle cx="165.0" cy="217.9" r="2.3" fill="#2563eb" opacity="0.35"/><circle cx="152.7" cy="185.1" r="2.3" fill="#2563eb" opacity="0.35"/><circle cx="227.8" cy="284.6" r="2.3" fill="#2563eb" opacity="0.35"/><circle cx="160.3" cy="209.1" r="2.3" fill="#2563eb" opacity="0.35"/><circle cx="80.9" cy="47.9" r="2.3" fill="#2563eb" opacity="0.35"/><circle cx="216.1" cy="276.7" r="2.3" fill="#2563eb" opacity="0.35"/><circle cx="235.9" cy="287.1" r="2.3" fill="#2563eb" opacity="0.35"/><circle cx="108.5" cy="40.9" r="2.3" fill="#2563eb" opacity="0.35"/><circle cx="143.7" cy="171.6" r="2.3" fill="#2563eb" opacity="0.35"/><circle cx="144.7" cy="192.3" r="2.3" fill="#2563eb" opacity="0.35"/><circle cx="261.0" cy="301.0" r="2.3" fill="#2563eb" opacity="0.35"/><circle cx="150.4" cy="196.3" r="2.3" fill="#2563eb" opacity="0.35"/><circle cx="185.3" cy="240.1" r="2.3" fill="#2563eb" opacity="0.35"/><circle cx="155.9" cy="200.0" r="2.3" fill="#2563eb" opacity="0.35"/><circle cx="138.4" cy="167.3" r="2.3" fill="#2563eb" opacity="0.35"/><circle cx="160.3" cy="209.1" r="2.3" fill="#2563eb" opacity="0.35"/><circle cx="136.6" cy="193.2" r="2.3" fill="#2563eb" opacity="0.35"/><circle cx="211.7" cy="266.3" r="2.3" fill="#2563eb" opacity="0.35"/><circle cx="247.6" cy="297.7" r="2.3" fill="#2563eb" opacity="0.35"/><circle cx="265.3" cy="295.6" r="2.3" fill="#2563eb" opacity="0.35"/><circle cx="175.2" cy="234.9" r="2.3" fill="#2563eb" opacity="0.35"/><circle cx="209.8" cy="261.0" r="2.3" fill="#2563eb" opacity="0.35"/><circle cx="134.5" cy="178.1" r="2.3" fill="#2563eb" opacity="0.35"/><circle cx="105.0" cy="96.6" r="2.3" fill="#2563eb" opacity="0.35"/><circle cx="116.8" cy="125.6" r="2.3" fill="#2563eb" opacity="0.35"/><circle cx="121.8" cy="115.1" r="2.3" fill="#2563eb" opacity="0.35"/><circle cx="122.5" cy="131.3" r="2.3" fill="#2563eb" opacity="0.35"/><circle cx="199.9" cy="252.0" r="2.3" fill="#2563eb" opacity="0.35"/><circle cx="175.2" cy="229.4" r="2.3" fill="#2563eb" opacity="0.35"/><circle cx="242.3" cy="277.6" r="2.3" fill="#2563eb" opacity="0.35"/><circle cx="122.5" cy="131.3" r="2.3" fill="#2563eb" opacity="0.35"/><circle cx="201.3" cy="257.4" r="2.3" fill="#2563eb" opacity="0.35"/><circle cx="132.8" cy="162.7" r="2.3" fill="#2563eb" opacity="0.35"/><circle cx="147.6" cy="181.3" r="2.3" fill="#2563eb" opacity="0.35"/><circle cx="134.8" cy="157.3" r="2.3" fill="#2563eb" opacity="0.35"/><circle cx="128.0" cy="136.6" r="2.3" fill="#2563eb" opacity="0.35"/><circle cx="160.3" cy="209.1" r="2.3" fill="#2563eb" opacity="0.35"/><circle cx="268.6" cy="309.1" r="2.3" fill="#2563eb" opacity="0.35"/><circle cx="223.4" cy="270.8" r="2.3" fill="#2563eb" opacity="0.35"/><circle cx="179.3" cy="209.2" r="2.3" fill="#2563eb" opacity="0.35"/><circle cx="198.7" cy="246.6" r="2.3" fill="#2563eb" opacity="0.35"/><circle cx="126.9" cy="157.7" r="2.3" fill="#2563eb" opacity="0.35"/><circle cx="159.5" cy="214.6" r="2.3" fill="#2563eb" opacity="0.35"/><circle cx="329.7" cy="331.2" r="2.3" fill="#2563eb" opacity="0.35"/><circle cx="170.9" cy="203.9" r="2.3" fill="#2563eb" opacity="0.35"/><circle cx="180.1" cy="232.1" r="2.3" fill="#2563eb" opacity="0.35"/><circle cx="124.8" cy="125.9" r="2.3" fill="#2563eb" opacity="0.35"/><circle cx="198.7" cy="246.6" r="2.3" fill="#2563eb" opacity="0.35"/><circle cx="119.4" cy="120.4" r="2.3" fill="#2563eb" opacity="0.35"/><circle cx="134.5" cy="178.1" r="2.3" fill="#2563eb" opacity="0.35"/><circle cx="202.8" cy="248.5" r="2.3" fill="#2563eb" opacity="0.35"/><circle cx="147.6" cy="181.3" r="2.3" fill="#2563eb" opacity="0.35"/><circle cx="226.0" cy="275.9" r="2.3" fill="#2563eb" opacity="0.35"/><circle cx="166.4" cy="200.9" r="2.3" fill="#2563eb" opacity="0.35"/><circle cx="209.8" cy="261.0" r="2.3" fill="#2563eb" opacity="0.35"/><circle cx="179.9" cy="226.5" r="2.3" fill="#2563eb" opacity="0.35"/><circle cx="232.6" cy="282.2" r="2.3" fill="#2563eb" opacity="0.35"/><circle cx="136.6" cy="193.2" r="2.3" fill="#2563eb" opacity="0.35"/><circle cx="204.9" cy="281.7" r="2.3" fill="#2563eb" opacity="0.35"/><circle cx="243.7" cy="296.7" r="2.3" fill="#2563eb" opacity="0.35"/><circle cx="206.6" cy="250.3" r="2.3" fill="#2563eb" opacity="0.35"/><circle cx="170.7" cy="209.7" r="2.3" fill="#2563eb" opacity="0.35"/><circle cx="170.5" cy="215.4" r="2.3" fill="#2563eb" opacity="0.35"/><circle cx="132.8" cy="162.7" r="2.3" fill="#2563eb" opacity="0.35"/><circle cx="206.6" cy="250.3" r="2.3" fill="#2563eb" opacity="0.35"/><circle cx="198.7" cy="246.6" r="2.3" fill="#2563eb" opacity="0.35"/><circle cx="180.1" cy="232.1" r="2.3" fill="#2563eb" opacity="0.35"/><circle cx="262.1" cy="298.0" r="2.3" fill="#2563eb" opacity="0.35"/><circle cx="329.7" cy="331.2" r="2.3" fill="#2563eb" opacity="0.35"/><circle cx="149.1" cy="201.8" r="2.3" fill="#2563eb" opacity="0.35"/><circle cx="146.2" cy="186.9" r="2.3" fill="#2563eb" opacity="0.35"/><circle cx="120.7" cy="152.2" r="2.3" fill="#2563eb" opacity="0.35"/><circle cx="204.1" cy="253.9" r="2.3" fill="#2563eb" opacity="0.35"/><circle cx="156.8" cy="194.4" r="2.3" fill="#2563eb" opacity="0.35"/><circle cx="216.6" cy="285.3" r="2.3" fill="#2563eb" opacity="0.35"/><circle cx="161.7" cy="197.8" r="2.3" fill="#2563eb" opacity="0.35"/><circle cx="155.9" cy="200.0" r="2.3" fill="#2563eb" opacity="0.35"/><circle cx="152.7" cy="185.1" r="2.3" fill="#2563eb" opacity="0.35"/><circle cx="199.3" cy="266.1" r="2.3" fill="#2563eb" opacity="0.35"/><circle cx="170.7" cy="209.7" r="2.3" fill="#2563eb" opacity="0.35"/><circle cx="130.6" cy="168.0" r="2.3" fill="#2563eb" opacity="0.35"/><circle cx="168.9" cy="242.8" r="2.3" fill="#2563eb" opacity="0.35"/><circle cx="221.1" cy="265.6" r="2.3" fill="#2563eb" opacity="0.35"/><circle cx="251.2" cy="298.6" r="2.3" fill="#2563eb" opacity="0.35"/><circle cx="170.5" cy="215.4" r="2.3" fill="#2563eb" opacity="0.35"/><circle cx="181.0" cy="248.5" r="2.3" fill="#2563eb" opacity="0.35"/><circle cx="183.2" cy="211.7" r="2.3" fill="#2563eb" opacity="0.35"/><circle cx="134.5" cy="178.1" r="2.3" fill="#2563eb" opacity="0.35"/><circle cx="159.5" cy="214.6" r="2.3" fill="#2563eb" opacity="0.35"/><circle cx="229.6" cy="277.2" r="2.3" fill="#2563eb" opacity="0.35"/><circle cx="195.5" cy="250.0" r="2.3" fill="#2563eb" opacity="0.35"/><circle cx="215.8" cy="267.9" r="2.3" fill="#2563eb" opacity="0.35"/><circle cx="180.1" cy="232.1" r="2.3" fill="#2563eb" opacity="0.35"/><circle cx="193.6" cy="239.0" r="2.3" fill="#2563eb" opacity="0.35"/><circle cx="126.9" cy="157.7" r="2.3" fill="#2563eb" opacity="0.35"/><circle cx="209.8" cy="261.0" r="2.3" fill="#2563eb" opacity="0.35"/><circle cx="235.5" cy="290.8" r="2.3" fill="#2563eb" opacity="0.35"/><circle cx="142.2" cy="177.2" r="2.3" fill="#2563eb" opacity="0.35"/><circle cx="147.6" cy="181.3" r="2.3" fill="#2563eb" opacity="0.35"/><circle cx="100.3" cy="56.4" r="2.3" fill="#2563eb" opacity="0.35"/><circle cx="107.8" cy="108.1" r="2.3" fill="#2563eb" opacity="0.35"/><circle cx="262.1" cy="298.0" r="2.3" fill="#2563eb" opacity="0.35"/><circle cx="128.8" cy="114.7" r="2.3" fill="#2563eb" opacity="0.35"/><circle cx="295.9" cy="319.8" r="2.3" fill="#2563eb" opacity="0.35"/><circle cx="151.6" cy="190.8" r="2.3" fill="#2563eb" opacity="0.35"/><circle cx="261.0" cy="301.0" r="2.3" fill="#2563eb" opacity="0.35"/><circle cx="113.9" cy="130.5" r="2.3" fill="#2563eb" opacity="0.35"/><circle cx="138.4" cy="167.3" r="2.3" fill="#2563eb" opacity="0.35"/><circle cx="138.4" cy="167.3" r="2.3" fill="#2563eb" opacity="0.35"/><circle cx="204.1" cy="253.9" r="2.3" fill="#2563eb" opacity="0.35"/><circle cx="145.9" cy="212.4" r="2.3" fill="#2563eb" opacity="0.35"/><circle cx="190.8" cy="247.9" r="2.3" fill="#2563eb" opacity="0.35"/><circle cx="243.0" cy="289.2" r="2.3" fill="#2563eb" opacity="0.35"/><circle cx="145.9" cy="212.4" r="2.3" fill="#2563eb" opacity="0.35"/><circle cx="175.2" cy="251.1" r="2.3" fill="#2563eb" opacity="0.35"/><circle cx="223.4" cy="270.8" r="2.3" fill="#2563eb" opacity="0.35"/><circle cx="217.6" cy="264.2" r="2.3" fill="#2563eb" opacity="0.35"/><circle cx="239.5" cy="291.9" r="2.3" fill="#2563eb" opacity="0.35"/><circle cx="156.8" cy="194.4" r="2.3" fill="#2563eb" opacity="0.35"/><circle cx="194.9" cy="224.0" r="2.3" fill="#2563eb" opacity="0.35"/><circle cx="256.2" cy="303.2" r="2.3" fill="#2563eb" opacity="0.35"/><circle cx="229.6" cy="277.2" r="2.3" fill="#2563eb" opacity="0.35"/><circle cx="199.3" cy="266.1" r="2.3" fill="#2563eb" opacity="0.35"/><circle cx="179.3" cy="209.2" r="2.3" fill="#2563eb" opacity="0.35"/><circle cx="198.7" cy="246.6" r="2.3" fill="#2563eb" opacity="0.35"/><circle cx="197.9" cy="260.8" r="2.3" fill="#2563eb" opacity="0.35"/><circle cx="190.8" cy="247.9" r="2.3" fill="#2563eb" opacity="0.35"/><circle cx="210.6" cy="242.5" r="2.3" fill="#2563eb" opacity="0.35"/><circle cx="243.7" cy="296.7" r="2.3" fill="#2563eb" opacity="0.35"/><circle cx="166.8" cy="195.1" r="2.3" fill="#2563eb" opacity="0.35"/><circle cx="202.8" cy="248.5" r="2.3" fill="#2563eb" opacity="0.35"/><circle cx="130.0" cy="131.0" r="2.3" fill="#2563eb" opacity="0.35"/><circle cx="189.3" cy="236.9" r="2.3" fill="#2563eb" opacity="0.35"/><circle cx="186.5" cy="251.0" r="2.3" fill="#2563eb" opacity="0.35"/><circle cx="184.8" cy="234.6" r="2.3" fill="#2563eb" opacity="0.35"/><circle cx="152.7" cy="185.1" r="2.3" fill="#2563eb" opacity="0.35"/><circle cx="125.5" cy="178.1" r="2.3" fill="#2563eb" opacity="0.35"/><circle cx="197.6" cy="241.1" r="2.3" fill="#2563eb" opacity="0.35"/><circle cx="138.6" cy="188.0" r="2.3" fill="#2563eb" opacity="0.35"/><circle cx="194.5" cy="244.6" r="2.3" fill="#2563eb" opacity="0.35"/><circle cx="158.6" cy="220.1" r="2.3" fill="#2563eb" opacity="0.35"/><circle cx="161.7" cy="197.8" r="2.3" fill="#2563eb" opacity="0.35"/><circle cx="105.3" cy="80.2" r="2.3" fill="#2563eb" opacity="0.35"/><circle cx="142.4" cy="128.2" r="2.3" fill="#2563eb" opacity="0.35"/><circle cx="179.0" cy="197.3" r="2.3" fill="#2563eb" opacity="0.35"/><circle cx="242.5" cy="281.5" r="2.3" fill="#2563eb" opacity="0.35"/><circle cx="196.6" cy="214.2" r="2.3" fill="#2563eb" opacity="0.35"/><circle cx="205.7" cy="259.3" r="2.3" fill="#2563eb" opacity="0.35"/><circle cx="334.2" cy="331.8" r="2.3" fill="#2563eb" opacity="0.35"/><circle cx="180.7" cy="243.1" r="2.3" fill="#2563eb" opacity="0.35"/><circle cx="180.4" cy="237.6" r="2.3" fill="#2563eb" opacity="0.35"/><circle cx="265.3" cy="308.4" r="2.3" fill="#2563eb" opacity="0.35"/><circle cx="326.9" cy="330.9" r="2.3" fill="#2563eb" opacity="0.35"/><circle cx="197.9" cy="260.8" r="2.3" fill="#2563eb" opacity="0.35"/><circle cx="138.4" cy="167.3" r="2.3" fill="#2563eb" opacity="0.35"/><circle cx="175.2" cy="212.4" r="2.3" fill="#2563eb" opacity="0.35"/><circle cx="158.6" cy="220.1" r="2.3" fill="#2563eb" opacity="0.35"/><circle cx="139.7" cy="140.2" r="2.3" fill="#2563eb" opacity="0.35"/><circle cx="122.5" cy="131.3" r="2.3" fill="#2563eb" opacity="0.35"/><circle cx="175.2" cy="251.1" r="2.3" fill="#2563eb" opacity="0.35"/><circle cx="136.6" cy="172.8" r="2.3" fill="#2563eb" opacity="0.35"/><circle cx="322.8" cy="328.4" r="2.3" fill="#2563eb" opacity="0.35"/><circle cx="134.2" cy="198.3" r="2.3" fill="#2563eb" opacity="0.35"/><circle cx="166.4" cy="200.9" r="2.3" fill="#2563eb" opacity="0.35"/><circle cx="160.3" cy="209.1" r="2.3" fill="#2563eb" opacity="0.35"/><circle cx="190.0" cy="242.4" r="2.3" fill="#2563eb" opacity="0.35"/><circle cx="185.3" cy="240.1" r="2.3" fill="#2563eb" opacity="0.35"/><circle cx="197.6" cy="241.1" r="2.3" fill="#2563eb" opacity="0.35"/><circle cx="128.8" cy="114.7" r="2.3" fill="#2563eb" opacity="0.35"/><circle cx="184.4" cy="228.9" r="2.3" fill="#2563eb" opacity="0.35"/><circle cx="306.0" cy="323.8" r="2.3" fill="#2563eb" opacity="0.35"/><circle cx="276.8" cy="307.9" r="2.3" fill="#2563eb" opacity="0.35"/><circle cx="243.3" cy="293.0" r="2.3" fill="#2563eb" opacity="0.35"/><circle cx="170.5" cy="215.4" r="2.3" fill="#2563eb" opacity="0.35"/><circle cx="175.2" cy="212.4" r="2.3" fill="#2563eb" opacity="0.35"/><circle cx="226.7" cy="288.2" r="2.3" fill="#2563eb" opacity="0.35"/><circle cx="149.1" cy="201.8" r="2.3" fill="#2563eb" opacity="0.35"/><circle cx="152.7" cy="185.1" r="2.3" fill="#2563eb" opacity="0.35"/><circle cx="113.7" cy="114.5" r="2.3" fill="#2563eb" opacity="0.35"/><circle cx="175.2" cy="212.4" r="2.3" fill="#2563eb" opacity="0.35"/><circle cx="179.9" cy="226.5" r="2.3" fill="#2563eb" opacity="0.35"/><circle cx="213.8" cy="262.6" r="2.3" fill="#2563eb" opacity="0.35"/><circle cx="218.1" cy="273.1" r="2.3" fill="#2563eb" opacity="0.35"/><circle cx="170.9" cy="203.9" r="2.3" fill="#2563eb" opacity="0.35"/><circle cx="132.3" cy="183.3" r="2.3" fill="#2563eb" opacity="0.35"/><circle cx="150.0" cy="169.9" r="2.3" fill="#2563eb" opacity="0.35"/><circle cx="129.2" cy="152.4" r="2.3" fill="#2563eb" opacity="0.35"/><circle cx="170.5" cy="215.4" r="2.3" fill="#2563eb" opacity="0.35"/><circle cx="160.3" cy="209.1" r="2.3" fill="#2563eb" opacity="0.35"/><circle cx="179.5" cy="215.1" r="2.3" fill="#2563eb" opacity="0.35"/><circle cx="134.5" cy="178.1" r="2.3" fill="#2563eb" opacity="0.35"/><circle cx="143.7" cy="171.6" r="2.3" fill="#2563eb" opacity="0.35"/><circle cx="162.3" cy="192.0" r="2.3" fill="#2563eb" opacity="0.35"/><circle cx="185.3" cy="240.1" r="2.3" fill="#2563eb" opacity="0.35"/><circle cx="144.3" cy="144.4" r="2.3" fill="#2563eb" opacity="0.35"/><circle cx="147.6" cy="181.3" r="2.3" fill="#2563eb" opacity="0.35"/><circle cx="201.7" cy="227.8" r="2.3" fill="#2563eb" opacity="0.35"/><circle cx="216.1" cy="276.7" r="2.3" fill="#2563eb" opacity="0.35"/><circle cx="217.6" cy="264.2" r="2.3" fill="#2563eb" opacity="0.35"/><circle cx="210.3" cy="251.9" r="2.3" fill="#2563eb" opacity="0.35"/><circle cx="154.6" cy="173.5" r="2.3" fill="#2563eb" opacity="0.35"/><circle cx="179.9" cy="226.5" r="2.3" fill="#2563eb" opacity="0.35"/><circle cx="142.2" cy="177.2" r="2.3" fill="#2563eb" opacity="0.35"/><circle cx="180.1" cy="232.1" r="2.3" fill="#2563eb" opacity="0.35"/><circle cx="235.9" cy="287.1" r="2.3" fill="#2563eb" opacity="0.35"/><circle cx="227.0" cy="272.1" r="2.3" fill="#2563eb" opacity="0.35"/><circle cx="179.5" cy="215.1" r="2.3" fill="#2563eb" opacity="0.35"/><circle cx="188.6" cy="231.3" r="2.3" fill="#2563eb" opacity="0.35"/><circle cx="225.2" cy="249.4" r="2.3" fill="#2563eb" opacity="0.35"/><circle cx="125.8" cy="141.9" r="2.3" fill="#2563eb" opacity="0.35"/><circle cx="175.2" cy="206.6" r="2.3" fill="#2563eb" opacity="0.35"/><circle cx="119.4" cy="120.4" r="2.3" fill="#2563eb" opacity="0.35"/><circle cx="180.7" cy="243.1" r="2.3" fill="#2563eb" opacity="0.35"/><circle cx="175.2" cy="200.8" r="2.3" fill="#2563eb" opacity="0.35"/><circle cx="198.7" cy="246.6" r="2.3" fill="#2563eb" opacity="0.35"/><circle cx="180.1" cy="232.1" r="2.3" fill="#2563eb" opacity="0.35"/><circle cx="180.7" cy="243.1" r="2.3" fill="#2563eb" opacity="0.35"/><circle cx="202.8" cy="248.5" r="2.3" fill="#2563eb" opacity="0.35"/><circle cx="143.0" cy="150.3" r="2.3" fill="#2563eb" opacity="0.35"/><circle cx="277.4" cy="310.9" r="2.3" fill="#2563eb" opacity="0.35"/><circle cx="213.8" cy="280.2" r="2.3" fill="#2563eb" opacity="0.35"/><circle cx="132.3" cy="183.3" r="2.3" fill="#2563eb" opacity="0.35"/><circle cx="161.0" cy="203.5" r="2.3" fill="#2563eb" opacity="0.35"/><circle cx="213.8" cy="271.5" r="2.3" fill="#2563eb" opacity="0.35"/><circle cx="199.9" cy="252.0" r="2.3" fill="#2563eb" opacity="0.35"/><circle cx="215.8" cy="267.9" r="2.3" fill="#2563eb" opacity="0.35"/><circle cx="141.1" cy="134.2" r="2.3" fill="#2563eb" opacity="0.35"/><circle cx="191.7" cy="253.3" r="2.3" fill="#2563eb" opacity="0.35"/><circle cx="149.4" cy="226.9" r="2.3" fill="#2563eb" opacity="0.35"/><circle cx="269.0" cy="306.1" r="2.3" fill="#2563eb" opacity="0.35"/><circle cx="103.2" cy="51.5" r="2.3" fill="#2563eb" opacity="0.35"/><circle cx="199.9" cy="252.0" r="2.3" fill="#2563eb" opacity="0.35"/><circle cx="285.5" cy="318.0" r="2.3" fill="#2563eb" opacity="0.35"/><circle cx="123.9" cy="109.6" r="2.3" fill="#2563eb" opacity="0.35"/><circle cx="206.3" cy="273.3" r="2.3" fill="#2563eb" opacity="0.35"/><circle cx="175.2" cy="212.4" r="2.3" fill="#2563eb" opacity="0.35"/><circle cx="117.8" cy="157.1" r="2.3" fill="#2563eb" opacity="0.35"/><circle cx="108.0" cy="91.8" r="2.3" fill="#2563eb" opacity="0.35"/><circle cx="243.3" cy="293.0" r="2.3" fill="#2563eb" opacity="0.35"/><circle cx="266.0" cy="305.4" r="2.3" fill="#2563eb" opacity="0.35"/><circle cx="283.8" cy="315.0" r="2.3" fill="#2563eb" opacity="0.35"/><circle cx="152.7" cy="185.1" r="2.3" fill="#2563eb" opacity="0.35"/><circle cx="170.5" cy="215.4" r="2.3" fill="#2563eb" opacity="0.35"/><circle cx="243.0" cy="289.2" r="2.3" fill="#2563eb" opacity="0.35"/><circle cx="247.6" cy="297.7" r="2.3" fill="#2563eb" opacity="0.35"/><circle cx="110.8" cy="103.2" r="2.3" fill="#2563eb" opacity="0.35"/><circle cx="170.2" cy="221.0" r="2.3" fill="#2563eb" opacity="0.35"/><circle cx="188.6" cy="231.3" r="2.3" fill="#2563eb" opacity="0.35"/><circle cx="211.7" cy="266.3" r="2.3" fill="#2563eb" opacity="0.35"/><circle cx="153.7" cy="211.0" r="2.3" fill="#2563eb" opacity="0.35"/><circle cx="132.8" cy="162.7" r="2.3" fill="#2563eb" opacity="0.35"/><circle cx="232.0" cy="285.9" r="2.3" fill="#2563eb" opacity="0.35"/><circle cx="199.9" cy="252.0" r="2.3" fill="#2563eb" opacity="0.35"/><circle cx="201.3" cy="257.4" r="2.3" fill="#2563eb" opacity="0.35"/><circle cx="224.8" cy="279.6" r="2.3" fill="#2563eb" opacity="0.35"/><circle cx="159.5" cy="214.6" r="2.3" fill="#2563eb" opacity="0.35"/><circle cx="271.7" cy="306.7" r="2.3" fill="#2563eb" opacity="0.35"/><circle cx="175.2" cy="206.6" r="2.3" fill="#2563eb" opacity="0.35"/><circle cx="175.2" cy="206.6" r="2.3" fill="#2563eb" opacity="0.35"/><circle cx="146.2" cy="186.9" r="2.3" fill="#2563eb" opacity="0.35"/><circle cx="161.7" cy="197.8" r="2.3" fill="#2563eb" opacity="0.35"/><circle cx="216.1" cy="276.7" r="2.3" fill="#2563eb" opacity="0.35"/><circle cx="139.7" cy="140.2" r="2.3" fill="#2563eb" opacity="0.35"/><circle cx="162.8" cy="186.1" r="2.3" fill="#2563eb" opacity="0.35"/><circle cx="215.8" cy="267.9" r="2.3" fill="#2563eb" opacity="0.35"/><circle cx="131.3" cy="147.0" r="2.3" fill="#2563eb" opacity="0.35"/><circle cx="288.4" cy="318.5" r="2.3" fill="#2563eb" opacity="0.35"/><circle cx="239.5" cy="288.2" r="2.3" fill="#2563eb" opacity="0.35"/><circle cx="113.5" cy="98.2" r="2.3" fill="#2563eb" opacity="0.35"/><circle cx="239.5" cy="284.4" r="2.3" fill="#2563eb" opacity="0.35"/><circle cx="125.5" cy="178.1" r="2.3" fill="#2563eb" opacity="0.35"/><circle cx="123.9" cy="109.6" r="2.3" fill="#2563eb" opacity="0.35"/><circle cx="186.5" cy="251.0" r="2.3" fill="#2563eb" opacity="0.35"/><circle cx="102.2" cy="84.9" r="2.3" fill="#2563eb" opacity="0.35"/><circle cx="146.2" cy="186.9" r="2.3" fill="#2563eb" opacity="0.35"/><circle cx="178.8" cy="191.3" r="2.3" fill="#2563eb" opacity="0.35"/><circle cx="250.3" cy="294.9" r="2.3" fill="#2563eb" opacity="0.35"/><circle cx="143.0" cy="150.3" r="2.3" fill="#2563eb" opacity="0.35"/><circle cx="211.7" cy="266.3" r="2.3" fill="#2563eb" opacity="0.35"/><circle cx="88.3" cy="85.2" r="2.3" fill="#2563eb" opacity="0.35"/><circle cx="145.1" cy="166.0" r="2.3" fill="#2563eb" opacity="0.35"/><circle cx="126.9" cy="157.7" r="2.3" fill="#2563eb" opacity="0.35"/><circle cx="141.6" cy="156.1" r="2.3" fill="#2563eb" opacity="0.35"/><circle cx="197.6" cy="241.1" r="2.3" fill="#2563eb" opacity="0.35"/><circle cx="143.7" cy="171.6" r="2.3" fill="#2563eb" opacity="0.35"/><circle cx="235.5" cy="290.8" r="2.3" fill="#2563eb" opacity="0.35"/><circle cx="100.9" cy="117.0" r="2.3" fill="#2563eb" opacity="0.35"/><circle cx="170.5" cy="215.4" r="2.3" fill="#2563eb" opacity="0.35"/><circle cx="190.0" cy="242.4" r="2.3" fill="#2563eb" opacity="0.35"/><circle cx="130.6" cy="168.0" r="2.3" fill="#2563eb" opacity="0.35"/><circle cx="197.6" cy="241.1" r="2.3" fill="#2563eb" opacity="0.35"/><circle cx="164.4" cy="223.4" r="2.3" fill="#2563eb" opacity="0.35"/><circle cx="180.1" cy="232.1" r="2.3" fill="#2563eb" opacity="0.35"/><circle cx="175.2" cy="212.4" r="2.3" fill="#2563eb" opacity="0.35"/><circle cx="175.2" cy="212.4" r="2.3" fill="#2563eb" opacity="0.35"/><circle cx="129.2" cy="152.4" r="2.3" fill="#2563eb" opacity="0.35"/><circle cx="142.2" cy="177.2" r="2.3" fill="#2563eb" opacity="0.35"/><circle cx="261.7" cy="307.7" r="2.3" fill="#2563eb" opacity="0.35"/><circle cx="239.5" cy="284.4" r="2.3" fill="#2563eb" opacity="0.35"/><circle cx="175.2" cy="229.4" r="2.3" fill="#2563eb" opacity="0.35"/><circle cx="221.1" cy="265.6" r="2.3" fill="#2563eb" opacity="0.35"/><circle cx="185.9" cy="245.6" r="2.3" fill="#2563eb" opacity="0.35"/><circle cx="144.7" cy="192.3" r="2.3" fill="#2563eb" opacity="0.35"/><circle cx="184.4" cy="228.9" r="2.3" fill="#2563eb" opacity="0.35"/><circle cx="213.8" cy="271.5" r="2.3" fill="#2563eb" opacity="0.35"/><circle cx="155.9" cy="200.0" r="2.3" fill="#2563eb" opacity="0.35"/><circle cx="118.4" cy="87.4" r="2.3" fill="#2563eb" opacity="0.35"/><circle cx="113.7" cy="114.5" r="2.3" fill="#2563eb" opacity="0.35"/><circle cx="136.6" cy="151.7" r="2.3" fill="#2563eb" opacity="0.35"/><circle cx="140.1" cy="161.8" r="2.3" fill="#2563eb" opacity="0.35"/><circle cx="150.4" cy="196.3" r="2.3" fill="#2563eb" opacity="0.35"/><circle cx="105.0" cy="96.6" r="2.3" fill="#2563eb" opacity="0.35"/><circle cx="126.9" cy="120.4" r="2.3" fill="#2563eb" opacity="0.35"/><circle cx="231.2" cy="289.6" r="2.3" fill="#2563eb" opacity="0.35"/><circle cx="152.7" cy="185.1" r="2.3" fill="#2563eb" opacity="0.35"/><circle cx="188.0" cy="261.7" r="2.3" fill="#2563eb" opacity="0.35"/><circle cx="138.4" cy="167.3" r="2.3" fill="#2563eb" opacity="0.35"/><circle cx="175.2" cy="212.4" r="2.3" fill="#2563eb" opacity="0.35"/><circle cx="162.3" cy="192.0" r="2.3" fill="#2563eb" opacity="0.35"/><circle cx="208.5" cy="278.4" r="2.3" fill="#2563eb" opacity="0.35"/><circle cx="221.1" cy="265.6" r="2.3" fill="#2563eb" opacity="0.35"/><circle cx="175.2" cy="229.4" r="2.3" fill="#2563eb" opacity="0.35"/><circle cx="97.1" cy="61.1" r="2.3" fill="#2563eb" opacity="0.35"/><circle cx="142.2" cy="177.2" r="2.3" fill="#2563eb" opacity="0.35"/><circle cx="140.1" cy="161.8" r="2.3" fill="#2563eb" opacity="0.35"/><circle cx="183.6" cy="217.5" r="2.3" fill="#2563eb" opacity="0.35"/><circle cx="158.4" cy="182.9" r="2.3" fill="#2563eb" opacity="0.35"/><circle cx="213.8" cy="262.6" r="2.3" fill="#2563eb" opacity="0.35"/><circle cx="216.6" cy="285.3" r="2.3" fill="#2563eb" opacity="0.35"/><circle cx="244.1" cy="300.4" r="2.3" fill="#2563eb" opacity="0.35"/><circle cx="179.7" cy="220.8" r="2.3" fill="#2563eb" opacity="0.35"/><circle cx="265.3" cy="308.4" r="2.3" fill="#2563eb" opacity="0.35"/><circle cx="195.1" cy="269.2" r="2.3" fill="#2563eb" opacity="0.35"/><circle cx="107.8" cy="108.1" r="2.3" fill="#2563eb" opacity="0.35"/><circle cx="266.0" cy="305.4" r="2.3" fill="#2563eb" opacity="0.35"/><circle cx="124.4" cy="162.8" r="2.3" fill="#2563eb" opacity="0.35"/><circle cx="175.2" cy="229.4" r="2.3" fill="#2563eb" opacity="0.35"/><circle cx="123.9" cy="109.6" r="2.3" fill="#2563eb" opacity="0.35"/><circle cx="160.3" cy="209.1" r="2.3" fill="#2563eb" opacity="0.35"/><circle cx="190.0" cy="242.4" r="2.3" fill="#2563eb" opacity="0.35"/><circle cx="158.6" cy="220.1" r="2.3" fill="#2563eb" opacity="0.35"/><circle cx="149.1" cy="201.8" r="2.3" fill="#2563eb" opacity="0.35"/><circle cx="325.4" cy="330.7" r="2.3" fill="#2563eb" opacity="0.35"/><circle cx="149.4" cy="226.9" r="2.3" fill="#2563eb" opacity="0.35"/><circle cx="134.8" cy="157.3" r="2.3" fill="#2563eb" opacity="0.35"/><circle cx="130.6" cy="168.0" r="2.3" fill="#2563eb" opacity="0.35"/><circle cx="188.6" cy="231.3" r="2.3" fill="#2563eb" opacity="0.35"/><circle cx="158.6" cy="220.1" r="2.3" fill="#2563eb" opacity="0.35"/><circle cx="88.3" cy="85.2" r="2.3" fill="#2563eb" opacity="0.35"/><circle cx="211.7" cy="266.3" r="2.3" fill="#2563eb" opacity="0.35"/><circle cx="199.9" cy="252.0" r="2.3" fill="#2563eb" opacity="0.35"/><circle cx="194.5" cy="244.6" r="2.3" fill="#2563eb" opacity="0.35"/><circle cx="159.7" cy="170.9" r="2.3" fill="#2563eb" opacity="0.35"/><circle cx="153.7" cy="179.4" r="2.3" fill="#2563eb" opacity="0.35"/><circle cx="170.7" cy="209.7" r="2.3" fill="#2563eb" opacity="0.35"/><circle cx="148.8" cy="175.7" r="2.3" fill="#2563eb" opacity="0.35"/><circle cx="186.5" cy="251.0" r="2.3" fill="#2563eb" opacity="0.35"/><circle cx="201.3" cy="257.4" r="2.3" fill="#2563eb" opacity="0.35"/><circle cx="229.6" cy="277.2" r="2.3" fill="#2563eb" opacity="0.35"/><circle cx="123.4" cy="147.2" r="2.3" fill="#2563eb" opacity="0.35"/><circle cx="250.3" cy="294.9" r="2.3" fill="#2563eb" opacity="0.35"/><circle cx="355.4" cy="337.4" r="2.3" fill="#2563eb" opacity="0.35"/><circle cx="152.7" cy="185.1" r="2.3" fill="#2563eb" opacity="0.35"/><circle cx="185.9" cy="245.6" r="2.3" fill="#2563eb" opacity="0.35"/><circle cx="97.9" cy="44.3" r="2.3" fill="#2563eb" opacity="0.35"/><circle cx="243.3" cy="293.0" r="2.3" fill="#2563eb" opacity="0.35"/><circle cx="211.7" cy="266.3" r="2.3" fill="#2563eb" opacity="0.35"/><circle cx="239.5" cy="280.5" r="2.3" fill="#2563eb" opacity="0.35"/><circle cx="161.0" cy="203.5" r="2.3" fill="#2563eb" opacity="0.35"/><circle cx="224.6" cy="266.9" r="2.3" fill="#2563eb" opacity="0.35"/><circle cx="169.7" cy="232.0" r="2.3" fill="#2563eb" opacity="0.35"/><circle cx="195.5" cy="250.0" r="2.3" fill="#2563eb" opacity="0.35"/><circle cx="243.3" cy="293.0" r="2.3" fill="#2563eb" opacity="0.35"/><circle cx="136.6" cy="151.7" r="2.3" fill="#2563eb" opacity="0.35"/><circle cx="263.9" cy="301.8" r="2.3" fill="#2563eb" opacity="0.35"/><circle cx="187.2" cy="256.4" r="2.3" fill="#2563eb" opacity="0.35"/><circle cx="157.6" cy="188.7" r="2.3" fill="#2563eb" opacity="0.35"/><circle cx="181.8" cy="259.1" r="2.3" fill="#2563eb" opacity="0.35"/><circle cx="185.9" cy="245.6" r="2.3" fill="#2563eb" opacity="0.35"/><circle cx="184.8" cy="234.6" r="2.3" fill="#2563eb" opacity="0.35"/><circle cx="145.1" cy="166.0" r="2.3" fill="#2563eb" opacity="0.35"/><circle cx="313.1" cy="324.9" r="2.3" fill="#2563eb" opacity="0.35"/><circle cx="143.0" cy="150.3" r="2.3" fill="#2563eb" opacity="0.35"/><circle cx="128.0" cy="136.6" r="2.3" fill="#2563eb" opacity="0.35"/><circle cx="163.1" cy="234.2" r="2.3" fill="#2563eb" opacity="0.35"/><circle cx="92.4" cy="81.5" r="2.3" fill="#2563eb" opacity="0.35"/><circle cx="235.5" cy="290.8" r="2.3" fill="#2563eb" opacity="0.35"/><circle cx="222.1" cy="274.5" r="2.3" fill="#2563eb" opacity="0.35"/><circle cx="138.4" cy="167.3" r="2.3" fill="#2563eb" opacity="0.35"/><circle cx="165.5" cy="212.3" r="2.3" fill="#2563eb" opacity="0.35"/><circle cx="161.7" cy="197.8" r="2.3" fill="#2563eb" opacity="0.35"/><circle cx="229.6" cy="277.2" r="2.3" fill="#2563eb" opacity="0.35"/><circle cx="205.7" cy="259.3" r="2.3" fill="#2563eb" opacity="0.35"/><circle cx="121.8" cy="115.1" r="2.3" fill="#2563eb" opacity="0.35"/><circle cx="175.2" cy="200.8" r="2.3" fill="#2563eb" opacity="0.35"/><circle cx="157.6" cy="188.7" r="2.3" fill="#2563eb" opacity="0.35"/><circle cx="239.5" cy="284.4" r="2.3" fill="#2563eb" opacity="0.35"/><circle cx="215.8" cy="267.9" r="2.3" fill="#2563eb" opacity="0.35"/><circle cx="217.6" cy="264.2" r="2.3" fill="#2563eb" opacity="0.35"/><circle cx="151.6" cy="190.8" r="2.3" fill="#2563eb" opacity="0.35"/><circle cx="147.6" cy="181.3" r="2.3" fill="#2563eb" opacity="0.35"/><circle cx="175.2" cy="223.8" r="2.3" fill="#2563eb" opacity="0.35"/><circle cx="147.6" cy="181.3" r="2.3" fill="#2563eb" opacity="0.35"/><circle cx="175.2" cy="194.8" r="2.3" fill="#2563eb" opacity="0.35"/><circle cx="294.7" cy="324.7" r="2.3" fill="#2563eb" opacity="0.35"/><circle cx="188.0" cy="261.7" r="2.3" fill="#2563eb" opacity="0.35"/><circle cx="170.7" cy="209.7" r="2.3" fill="#2563eb" opacity="0.35"/><circle cx="222.1" cy="274.5" r="2.3" fill="#2563eb" opacity="0.35"/><circle cx="194.9" cy="224.0" r="2.3" fill="#2563eb" opacity="0.35"/><circle cx="274.6" cy="310.4" r="2.3" fill="#2563eb" opacity="0.35"/><circle cx="149.4" cy="226.9" r="2.3" fill="#2563eb" opacity="0.35"/><circle cx="142.2" cy="177.2" r="2.3" fill="#2563eb" opacity="0.35"/><circle cx="170.7" cy="209.7" r="2.3" fill="#2563eb" opacity="0.35"/><circle cx="76.3" cy="50.7" r="2.3" fill="#2563eb" opacity="0.35"/><circle cx="98.8" cy="89.4" r="2.3" fill="#2563eb" opacity="0.35"/><circle cx="179.9" cy="226.5" r="2.3" fill="#2563eb" opacity="0.35"/><circle cx="256.2" cy="303.2" r="2.3" fill="#2563eb" opacity="0.35"/><circle cx="205.2" cy="244.8" r="2.3" fill="#2563eb" opacity="0.35"/><circle cx="223.4" cy="283.2" r="2.3" fill="#2563eb" opacity="0.35"/><circle cx="105.0" cy="96.6" r="2.3" fill="#2563eb" opacity="0.35"/><circle cx="116.8" cy="125.6" r="2.3" fill="#2563eb" opacity="0.35"/><circle cx="197.6" cy="241.1" r="2.3" fill="#2563eb" opacity="0.35"/><circle cx="226.0" cy="275.9" r="2.3" fill="#2563eb" opacity="0.35"/><circle cx="250.3" cy="294.9" r="2.3" fill="#2563eb" opacity="0.35"/><circle cx="313.1" cy="329.4" r="2.3" fill="#2563eb" opacity="0.35"/><circle cx="262.9" cy="304.7" r="2.3" fill="#2563eb" opacity="0.35"/><circle cx="150.4" cy="196.3" r="2.3" fill="#2563eb" opacity="0.35"/><circle cx="170.0" cy="226.5" r="2.3" fill="#2563eb" opacity="0.35"/><circle cx="204.1" cy="253.9" r="2.3" fill="#2563eb" opacity="0.35"/><circle cx="161.7" cy="197.8" r="2.3" fill="#2563eb" opacity="0.35"/><circle cx="316.8" cy="327.6" r="2.3" fill="#2563eb" opacity="0.35"/><circle cx="212.0" cy="257.3" r="2.3" fill="#2563eb" opacity="0.35"/><circle cx="175.2" cy="234.9" r="2.3" fill="#2563eb" opacity="0.35"/><circle cx="149.7" cy="142.1" r="2.3" fill="#2563eb" opacity="0.35"/><circle cx="185.9" cy="245.6" r="2.3" fill="#2563eb" opacity="0.35"/><circle cx="140.1" cy="161.8" r="2.3" fill="#2563eb" opacity="0.35"/><circle cx="268.1" cy="312.1" r="2.3" fill="#2563eb" opacity="0.35"/><circle cx="121.1" cy="98.6" r="2.3" fill="#2563eb" opacity="0.35"/><circle cx="175.2" cy="218.2" r="2.3" fill="#2563eb" opacity="0.35"/><circle cx="141.1" cy="202.9" r="2.3" fill="#2563eb" opacity="0.35"/><circle cx="118.9" cy="104.1" r="2.3" fill="#2563eb" opacity="0.35"/><circle cx="123.9" cy="109.6" r="2.3" fill="#2563eb" opacity="0.35"/><circle cx="266.0" cy="305.4" r="2.3" fill="#2563eb" opacity="0.35"/><circle cx="283.8" cy="315.0" r="2.3" fill="#2563eb" opacity="0.35"/><circle cx="163.3" cy="180.2" r="2.3" fill="#2563eb" opacity="0.35"/><circle cx="183.6" cy="217.5" r="2.3" fill="#2563eb" opacity="0.35"/><circle cx="155.9" cy="200.0" r="2.3" fill="#2563eb" opacity="0.35"/><circle cx="119.4" cy="120.4" r="2.3" fill="#2563eb" opacity="0.35"/><circle cx="320.0" cy="328.0" r="2.3" fill="#2563eb" opacity="0.35"/><circle cx="113.9" cy="130.5" r="2.3" fill="#2563eb" opacity="0.35"/><circle cx="166.4" cy="200.9" r="2.3" fill="#2563eb" opacity="0.35"/><circle cx="110.8" cy="103.2" r="2.3" fill="#2563eb" opacity="0.35"/><circle cx="226.7" cy="288.2" r="2.3" fill="#2563eb" opacity="0.35"/><circle cx="146.4" cy="160.2" r="2.3" fill="#2563eb" opacity="0.35"/><circle cx="179.7" cy="220.8" r="2.3" fill="#2563eb" opacity="0.35"/><circle cx="185.3" cy="240.1" r="2.3" fill="#2563eb" opacity="0.35"/><circle cx="113.7" cy="114.5" r="2.3" fill="#2563eb" opacity="0.35"/><circle cx="188.6" cy="231.3" r="2.3" fill="#2563eb" opacity="0.35"/><circle cx="143.0" cy="197.7" r="2.3" fill="#2563eb" opacity="0.35"/><circle cx="209.2" cy="269.8" r="2.3" fill="#2563eb" opacity="0.35"/><circle cx="226.0" cy="275.9" r="2.3" fill="#2563eb" opacity="0.35"/><circle cx="102.2" cy="84.9" r="2.3" fill="#2563eb" opacity="0.35"/><circle cx="124.4" cy="162.8" r="2.3" fill="#2563eb" opacity="0.35"/><circle cx="166.0" cy="206.7" r="2.3" fill="#2563eb" opacity="0.35"/><circle cx="226.0" cy="275.9" r="2.3" fill="#2563eb" opacity="0.35"/><circle cx="153.7" cy="211.0" r="2.3" fill="#2563eb" opacity="0.35"/><circle cx="161.7" cy="197.8" r="2.3" fill="#2563eb" opacity="0.35"/><circle cx="464.8" cy="321.6" r="2.3" fill="#2563eb" opacity="0.35"/><circle cx="159.5" cy="214.6" r="2.3" fill="#2563eb" opacity="0.35"/><circle cx="175.2" cy="212.4" r="2.3" fill="#2563eb" opacity="0.35"/><circle cx="184.4" cy="228.9" r="2.3" fill="#2563eb" opacity="0.35"/><circle cx="193.6" cy="239.0" r="2.3" fill="#2563eb" opacity="0.35"/><circle cx="205.2" cy="244.8" r="2.3" fill="#2563eb" opacity="0.35"/><circle cx="170.0" cy="226.5" r="2.3" fill="#2563eb" opacity="0.35"/><circle cx="175.2" cy="223.8" r="2.3" fill="#2563eb" opacity="0.35"/><circle cx="146.2" cy="186.9" r="2.3" fill="#2563eb" opacity="0.35"/><circle cx="150.4" cy="196.3" r="2.3" fill="#2563eb" opacity="0.35"/><circle cx="256.5" cy="296.5" r="2.3" fill="#2563eb" opacity="0.35"/><circle cx="190.8" cy="247.9" r="2.3" fill="#2563eb" opacity="0.35"/><circle cx="201.3" cy="257.4" r="2.3" fill="#2563eb" opacity="0.35"/><circle cx="175.2" cy="218.2" r="2.3" fill="#2563eb" opacity="0.35"/><circle cx="228.8" cy="280.9" r="2.3" fill="#2563eb" opacity="0.35"/><circle cx="134.5" cy="178.1" r="2.3" fill="#2563eb" opacity="0.35"/><circle cx="165.0" cy="217.9" r="2.3" fill="#2563eb" opacity="0.35"/><circle cx="145.1" cy="166.0" r="2.3" fill="#2563eb" opacity="0.35"/><circle cx="239.5" cy="291.9" r="2.3" fill="#2563eb" opacity="0.35"/><circle cx="210.3" cy="251.9" r="2.3" fill="#2563eb" opacity="0.35"/><circle cx="102.8" cy="68.4" r="2.3" fill="#2563eb" opacity="0.35"/><circle cx="125.8" cy="141.9" r="2.3" fill="#2563eb" opacity="0.35"/><circle cx="189.3" cy="236.9" r="2.3" fill="#2563eb" opacity="0.35"/><circle cx="239.5" cy="295.6" r="2.3" fill="#2563eb" opacity="0.35"/><circle cx="186.5" cy="251.0" r="2.3" fill="#2563eb" opacity="0.35"/><circle cx="220.4" cy="256.4" r="2.3" fill="#2563eb" opacity="0.35"/><circle cx="166.0" cy="206.7" r="2.3" fill="#2563eb" opacity="0.35"/><circle cx="126.9" cy="120.4" r="2.3" fill="#2563eb" opacity="0.35"/><circle cx="227.8" cy="284.6" r="2.3" fill="#2563eb" opacity="0.35"/><circle cx="158.6" cy="220.1" r="2.3" fill="#2563eb" opacity="0.35"/><circle cx="257.9" cy="300.3" r="2.3" fill="#2563eb" opacity="0.35"/><circle cx="175.2" cy="240.4" r="2.3" fill="#2563eb" opacity="0.35"/><circle cx="136.6" cy="193.2" r="2.3" fill="#2563eb" opacity="0.35"/><circle cx="170.5" cy="215.4" r="2.3" fill="#2563eb" opacity="0.35"/><circle cx="139.7" cy="140.2" r="2.3" fill="#2563eb" opacity="0.35"/><circle cx="162.3" cy="192.0" r="2.3" fill="#2563eb" opacity="0.35"/><circle cx="220.6" cy="278.2" r="2.3" fill="#2563eb" opacity="0.35"/><circle cx="145.5" cy="138.3" r="2.3" fill="#2563eb" opacity="0.35"/><circle cx="175.2" cy="240.4" r="2.3" fill="#2563eb" opacity="0.35"/><circle cx="189.3" cy="236.9" r="2.3" fill="#2563eb" opacity="0.35"/><circle cx="170.2" cy="221.0" r="2.3" fill="#2563eb" opacity="0.35"/><circle cx="147.6" cy="207.2" r="2.3" fill="#2563eb" opacity="0.35"/><circle cx="126.9" cy="157.7" r="2.3" fill="#2563eb" opacity="0.35"/><circle cx="85.1" cy="44.5" r="2.3" fill="#2563eb" opacity="0.35"/><circle cx="110.8" cy="150.8" r="2.3" fill="#2563eb" opacity="0.35"/><circle cx="281.4" cy="308.9" r="2.3" fill="#2563eb" opacity="0.35"/><circle cx="105.3" cy="80.2" r="2.3" fill="#2563eb" opacity="0.35"/><circle cx="144.0" cy="217.6" r="2.3" fill="#2563eb" opacity="0.35"/><circle cx="119.1" cy="187.5" r="2.3" fill="#2563eb" opacity="0.35"/><circle cx="232.6" cy="282.2" r="2.3" fill="#2563eb" opacity="0.35"/><circle cx="141.1" cy="202.9" r="2.3" fill="#2563eb" opacity="0.35"/><circle cx="228.8" cy="280.9" r="2.3" fill="#2563eb" opacity="0.35"/><circle cx="155.9" cy="200.0" r="2.3" fill="#2563eb" opacity="0.35"/><circle cx="175.2" cy="223.8" r="2.3" fill="#2563eb" opacity="0.35"/><circle cx="122.5" cy="182.9" r="2.3" fill="#2563eb" opacity="0.35"/><circle cx="113.9" cy="130.5" r="2.3" fill="#2563eb" opacity="0.35"/><circle cx="223.4" cy="270.8" r="2.3" fill="#2563eb" opacity="0.35"/><circle cx="286.4" cy="315.5" r="2.3" fill="#2563eb" opacity="0.35"/><circle cx="102.2" cy="84.9" r="2.3" fill="#2563eb" opacity="0.35"/><circle cx="224.8" cy="279.6" r="2.3" fill="#2563eb" opacity="0.35"/><circle cx="183.9" cy="223.3" r="2.3" fill="#2563eb" opacity="0.35"/><circle cx="199.3" cy="266.1" r="2.3" fill="#2563eb" opacity="0.35"/><circle cx="139.7" cy="140.2" r="2.3" fill="#2563eb" opacity="0.35"/><circle cx="205.2" cy="244.8" r="2.3" fill="#2563eb" opacity="0.35"/><circle cx="163.1" cy="234.2" r="2.3" fill="#2563eb" opacity="0.35"/><circle cx="130.0" cy="131.0" r="2.3" fill="#2563eb" opacity="0.35"/><circle cx="136.6" cy="151.7" r="2.3" fill="#2563eb" opacity="0.35"/><circle cx="211.7" cy="266.3" r="2.3" fill="#2563eb" opacity="0.35"/><circle cx="144.7" cy="192.3" r="2.3" fill="#2563eb" opacity="0.35"/><circle cx="181.0" cy="248.5" r="2.3" fill="#2563eb" opacity="0.35"/><circle cx="251.2" cy="298.6" r="2.3" fill="#2563eb" opacity="0.35"/><circle cx="150.0" cy="169.9" r="2.3" fill="#2563eb" opacity="0.35"/><circle cx="175.2" cy="212.4" r="2.3" fill="#2563eb" opacity="0.35"/><circle cx="190.0" cy="242.4" r="2.3" fill="#2563eb" opacity="0.35"/><circle cx="159.5" cy="214.6" r="2.3" fill="#2563eb" opacity="0.35"/><circle cx="175.2" cy="223.8" r="2.3" fill="#2563eb" opacity="0.35"/><circle cx="205.7" cy="259.3" r="2.3" fill="#2563eb" opacity="0.35"/><circle cx="154.6" cy="173.5" r="2.3" fill="#2563eb" opacity="0.35"/><circle cx="213.8" cy="271.5" r="2.3" fill="#2563eb" opacity="0.35"/><circle cx="95.1" cy="93.5" r="2.3" fill="#2563eb" opacity="0.35"/><circle cx="225.2" cy="291.8" r="2.3" fill="#2563eb" opacity="0.35"/><circle cx="204.1" cy="253.9" r="2.3" fill="#2563eb" opacity="0.35"/><circle cx="175.2" cy="251.1" r="2.3" fill="#2563eb" opacity="0.35"/><circle cx="142.2" cy="177.2" r="2.3" fill="#2563eb" opacity="0.35"/><circle cx="205.7" cy="259.3" r="2.3" fill="#2563eb" opacity="0.35"/>
  <line x1="40" y1="274.9" x2="600" y2="274.9" stroke="#dc2626" stroke-dasharray="6 4" stroke-width="1.5"/>
  <text x="596" y="268.9" font-family="system-ui" font-size="12" fill="#dc2626" text-anchor="end">&#945; = 0.05</text>
  <text x="320" y="352" font-family="system-ui" font-size="12" fill="#64748b" text-anchor="middle">relative risk (RR)</text>
  <text x="16" y="180" font-family="system-ui" font-size="12" fill="#64748b" text-anchor="middle" transform="rotate(-90 16 180)">p-value (log scale)</text>
</svg>